<svg xmlns="http://www.w3.org/2000/svg" viewBox="0 0 958.37 914.93"><defs><style>.cls-1{fill:#161616;}</style></defs><title>attaxlogos</title><g id="Calque_2" data-name="Calque 2"><g id="Calque_1-2" data-name="Calque 1"><path class="cls-1" d="M449.69,663.33H179.88q-16.87-45-33.73-89.93h.39Q82.21,400.65,17.88,227.88l.09,0L0,179.92H269.81l33.73,89.94H154.94L267.42,573.4H416Q432.82,618.37,449.69,663.33Z"/><path class="cls-1" d="M539.63,179.92H269.81Q253,135,236.08,90H505.9Q522.76,135,539.63,179.92Z"/><path class="cls-1" d="M888.26,393.87l-.7-.35h.57C888.18,393.64,888.22,393.75,888.26,393.87Z"/><path class="cls-1" d="M685.77,573.4H416q-16.86-45-33.73-89.94H652.05Z"/><path class="cls-1" d="M888.79,394.12l-.53-.25-.7-.35-.1,0h.83Z"/><path class="cls-1" d="M888.26,393.87l-.7-.35h.57C888.18,393.64,888.22,393.75,888.26,393.87Z"/><path class="cls-1" d="M888.79,394.12l-.53-.25-.7-.35-.1,0h.83Z"/><path class="cls-1" d="M921.67,483.42a.08.08,0,0,0,0,0H651.87q-16.86-45-33.73-89.93H774.39l0,0q-34.77-44.5-69.55-89l-.56-.27-57-73q18-70.6,36-141.22H505.76Q488.9,45.08,472,0H799L776.14,89.94l-30.6,120.78-.07.27,0,.12.18-.29q71.24,91.33,142.49,182.66h-.82l.1,0,.7.34.53.26-.51-.65h.34l17.2,22c2.05,2.62,4.11,5.25,6.15,7.88Q935,452.92,958,482.52a.9.9,0,0,0,.22.45.69.69,0,0,0,.11.45Z"/><path class="cls-1" d="M272.93,914.93Q232.49,806.45,192,698l96.33,49.68,60.15,163Z"/><path class="cls-1" d="M745.79,210.82l-.18.29,0-.12.07-.27,0,0Z"/><path class="cls-1" d="M888.79,394.12l-.53-.25-.7-.35-.1,0h.83Z"/></g></g></svg>