<svg id="Calque_1" data-name="Calque 1" xmlns="http://www.w3.org/2000/svg" viewBox="0 0 1773.87 1651.96"><defs><style>.cls-1{fill:#a0a0a0;}.cls-2{fill:#595959;}.cls-3{fill:#fff;}.cls-4{fill:#fc2433;}.cls-5{fill:#0025ff;}.cls-6{fill:#161616;}.cls-7{fill:#f21c1c;}</style></defs><title>Logo Attax WH</title><path class="cls-1" d="M557.83-605.19l-14.45,57Q533.67-510,524-471.75L658.58-299.59,464.67-299Q413.39-438,361.45-576.69c-2.22-5.93-8.45-22.57-10.68-28.5Z" transform="translate(-51.7 605.19)"/><path d="M165.71-185.09,51.7-491.24H222.59q57,153.08,113.92,306.17Z" transform="translate(-51.7 605.19)"/><path class="cls-2" d="M486-242H315.15q-57-153.09-113.92-306.17H372.11Q429.08-395.12,486-242Z" transform="translate(-51.7 605.19)"/><path d="M224.56-25.73q-25.62-68.7-51.24-137.4l61,31.46,38.1,103.24Z" transform="translate(-51.7 605.19)"/><path class="cls-3" d="M312.39,453.88H231.5l-10.11-27h.11q-19.29-51.8-38.57-103.6h0l-5.38-14.37h80.89l10.11,27H224l33.73,91h44.53Z" transform="translate(-51.7 605.19)"/><path class="cls-3" d="M339.36,308.94h-80.9l-10.11-27h80.9Z" transform="translate(-51.7 605.19)"/><path class="cls-3" d="M443.89,373.09l-.21-.1h.17A.42.42,0,0,0,443.89,373.09Z" transform="translate(-51.7 605.19)"/><path class="cls-3" d="M383.18,426.92h-80.9l-10.11-27h80.89Z" transform="translate(-51.7 605.19)"/><path class="cls-3" d="M444.05,373.17l-.16-.08-.21-.1,0,0h.24Z" transform="translate(-51.7 605.19)"/><path class="cls-3" d="M443.89,373.09l-.21-.1h.17A.42.42,0,0,0,443.89,373.09Z" transform="translate(-51.7 605.19)"/><path class="cls-3" d="M444.05,373.17l-.16-.08-.21-.1,0,0h.24Z" transform="translate(-51.7 605.19)"/><path class="cls-3" d="M453.9,399.94H373L362.9,373h46.84v0l-20.85-26.69-.17-.08-17.07-21.89Q377,303.13,382.43,282H329.2q-5.06-13.46-10.11-27h98l-6.84,27-9.18,36.21,0,.08v0l.06-.09L443.84,373h-.25l0,0,.21.1.16.08-.15-.2h.1l5.16,6.59,1.84,2.36,13.87,17.75a.25.25,0,0,0,.06.13s0,.11,0,.14Z" transform="translate(-51.7 605.19)"/><path class="cls-3" d="M259.4,529.31l-24.26-65L264,479.16q9,24.43,18,48.88Z" transform="translate(-51.7 605.19)"/><path class="cls-3" d="M401.17,318.21a.56.56,0,0,1-.05.08v0l0-.08h0S401.16,318.2,401.17,318.21Z" transform="translate(-51.7 605.19)"/><path class="cls-3" d="M444.05,373.17l-.16-.08-.21-.1,0,0h.24Z" transform="translate(-51.7 605.19)"/><path class="cls-3" d="M585.15,416.33h-45.5l-17.38,31.44h-23.6l70-122.95h25l17,123H589ZM548.6,398.94h34.93l-6.39-51.46h-.43Z" transform="translate(-51.7 605.19)"/><path class="cls-3" d="M623.52,429.53a48.47,48.47,0,0,1,.86-8.6l10-46.1H620.88l3.5-16.61h13.46l4.6-22.16h20.87l-4.68,22.16h18.83L674,374.83H655.22l-9,42.09a27.48,27.48,0,0,0-.85,6.48c0,6.13,4.09,8.6,11.33,8.6a37.25,37.25,0,0,0,6.13-.42l-3.49,16.1a53.62,53.62,0,0,1-10.48,1C633.75,448.7,623.52,442.31,623.52,429.53Z" transform="translate(-51.7 605.19)"/><path class="cls-3" d="M680.38,429.53a48.47,48.47,0,0,1,.86-8.6l10-46.1H677.74l3.5-16.61H694.7l4.6-22.16h20.87l-4.68,22.16h18.83l-3.49,16.61H712.08l-9,42.09a27.48,27.48,0,0,0-.85,6.48c0,6.13,4.09,8.6,11.33,8.6a37.25,37.25,0,0,0,6.13-.42l-3.49,16.1a53.62,53.62,0,0,1-10.48,1C690.61,448.7,680.38,442.31,680.38,429.53Z" transform="translate(-51.7 605.19)"/><path class="cls-3" d="M728.21,424.34c0-18.15,14.4-28.8,38.35-29.83l24.62-1,1.19-5.45a15,15,0,0,0,.34-3.75c0-7.33-5.71-11.93-15.67-11.93-10.23,0-16.53,4.69-18.24,11.93H738.52c3-17.21,18.41-28.89,40.13-28.89,20.79,0,34.68,10.83,34.68,26.5a38.54,38.54,0,0,1-.68,7.5L800.3,447.77H780.19l2.3-10.91h-.34c-5.63,7.5-15.08,12.36-26.25,12.36C740.48,449.22,728.21,438.82,728.21,424.34Zm58.11-8.18,2-8.61-21.13,1c-11.5.43-18.4,5.29-18.4,12.95,0,7,6,11.51,14.82,11.51C774.56,433,784.11,426,786.32,416.16Z" transform="translate(-51.7 605.19)"/><path class="cls-3" d="M856.82,416.5l-24.71,31.27h-23.6l38.77-46.1-19.6-44.39h22.15l12.78,31.18H863l24.71-31.18h23.69l-38.77,46.1,19.51,44.39H870.11L857.33,416.5Z" transform="translate(-51.7 605.19)"/><path class="cls-4" d="M907.45,110.46,764.86,110,757.6,90.43l142.59.48Z" transform="translate(-51.7 605.19)"/><path class="cls-5" d="M772.48,130.21H694.89l-7.32-19.53h77.59Z" transform="translate(-51.7 605.19)"/><path class="cls-5" d="M846.48,194.21H703.89l-7.32-19.53H839.16Z" transform="translate(-51.7 605.19)"/><path class="cls-4" d="M917.48,174.21H839.89l-7.32-19.53h77.59Z" transform="translate(-51.7 605.19)"/><path class="cls-5" d="M1051,95H974L947.57,25.68h77.59Q1038.07,60.35,1051,95Z" transform="translate(-51.7 605.19)"/><path class="cls-4" d="M1233,95h-77l-26.43-69.32h77.59Q1220.07,60.35,1233,95Z" transform="translate(-51.7 605.19)"/><path class="cls-6" d="M1639.57,598.2H1804.9l20.67-55.11H1660.24Z" transform="translate(-51.7 605.19)"/><path class="cls-6" d="M1747,478.77H1288.18Q1259.35,401.85,1230.5,325c-.56-1.48-1.11-3-1.67-4.45h458.82Q1717.32,399.63,1747,478.77Z" transform="translate(-51.7 605.19)"/><path class="cls-6" d="M1230.5,320.5V325c-.56-1.48-1.11-3-1.67-4.45Z" transform="translate(-51.7 605.19)"/><path class="cls-6" d="M1131.18,478.77h99.32V479H1072V321Q1101.6,399.85,1131.18,478.77Z" transform="translate(-51.7 605.19)"/><path class="cls-6" d="M1608,1046.77h-56.65q-10.66-24.09-21.35-48.18v-.14h56.59l.6,1.36Q1597.6,1023.29,1608,1046.77Z" transform="translate(-51.7 605.19)"/><path class="cls-6" d="M1071.83,320.5h.17V321Z" transform="translate(-51.7 605.19)"/><path class="cls-6" d="M1606,478.77H1288.18Q1259.35,401.85,1230.5,325c-.56-1.48-1.11-3-1.67-4.45h317.82Q1576.32,399.63,1606,478.77Z" transform="translate(-51.7 605.19)"/><path class="cls-6" d="M1763,478.77H1288.18Q1259.35,401.85,1230.5,325c-.56-1.48-1.11-3-1.67-4.45h474.82Q1733.32,399.63,1763,478.77Z" transform="translate(-51.7 605.19)"/><path class="cls-6" d="M1467,998.77h61l23-48.18v-.14h-60.94c-.22.45-.43.91-.65,1.36Z" transform="translate(-51.7 605.19)"/><path class="cls-6" d="M1429,950.77h61l23-48.18v-.14h-60.94c-.22.45-.43.91-.65,1.36Z" transform="translate(-51.7 605.19)"/><path class="cls-6" d="M1391,902.77h61l23-48.18v-.14h-60.94c-.22.45-.43.91-.65,1.36Z" transform="translate(-51.7 605.19)"/><path class="cls-6" d="M1352,855.77h61l23-48.18v-.14h-60.94c-.22.45-.43.91-.65,1.36Z" transform="translate(-51.7 605.19)"/><path class="cls-6" d="M1310,806.77h61l23-48.18v-.14h-60.94c-.22.45-.43.91-.65,1.36Z" transform="translate(-51.7 605.19)"/><path class="cls-6" d="M1366,757.77h61l23-48.18v-.14h-60.94c-.22.45-.43.91-.65,1.36Z" transform="translate(-51.7 605.19)"/><path class="cls-6" d="M1429,708.77h61l23-48.18v-.14h-60.94c-.22.45-.43.91-.65,1.36Z" transform="translate(-51.7 605.19)"/><path class="cls-6" d="M1644,998.77h-56.65q-10.66-24.09-21.35-48.18v-.14h56.59l.6,1.36Q1633.6,975.29,1644,998.77Z" transform="translate(-51.7 605.19)"/><path class="cls-6" d="M1679,950.77h-56.65q-10.66-24.09-21.35-48.18v-.14h56.59l.6,1.36Q1668.6,927.29,1679,950.77Z" transform="translate(-51.7 605.19)"/><path class="cls-6" d="M1713,902.77h-56.65q-10.66-24.09-21.35-48.18v-.14h56.59l.6,1.36Q1702.6,879.29,1713,902.77Z" transform="translate(-51.7 605.19)"/><path class="cls-6" d="M1748,855.77h-56.65q-10.66-24.09-21.35-48.18v-.14h56.59l.6,1.36Q1737.6,832.29,1748,855.77Z" transform="translate(-51.7 605.19)"/><path class="cls-6" d="M1781,806.77h-56.65q-10.66-24.09-21.35-48.18v-.14h56.59l.6,1.36Q1770.6,783.29,1781,806.77Z" transform="translate(-51.7 605.19)"/><path class="cls-6" d="M1473,743.77h61l23-48.18v-.14h-60.94c-.22.45-.43.91-.65,1.36Z" transform="translate(-51.7 605.19)"/><path class="cls-6" d="M1736,758.77h-56.65q-10.66-24.09-21.35-48.18v-.14h56.59l.6,1.36Q1725.6,735.29,1736,758.77Z" transform="translate(-51.7 605.19)"/><path class="cls-6" d="M1674,710.77h-56.65q-10.66-24.09-21.35-48.18v-.14h56.59l.6,1.36Q1663.6,687.29,1674,710.77Z" transform="translate(-51.7 605.19)"/><path class="cls-6" d="M1632,743.77h-56.65q-10.66-24.09-21.35-48.18v-.14h56.59l.6,1.36Q1621.6,720.29,1632,743.77Z" transform="translate(-51.7 605.19)"/><path class="cls-6" d="M1596,791.77h-56.65q-10.66-24.09-21.35-48.18v-.14h56.59l.6,1.36Q1585.6,768.29,1596,791.77Z" transform="translate(-51.7 605.19)"/><rect class="cls-4" x="647.3" y="1532.19" width="122" height="24"/><rect class="cls-4" x="569.3" y="1495.19" width="122" height="24"/><rect class="cls-4" x="708.3" y="1495.19" width="122" height="24"/><rect class="cls-4" x="527.3" y="1458.19" width="122" height="24"/><rect class="cls-4" x="482.3" y="1421.19" width="122" height="24"/><rect class="cls-4" x="432.3" y="1385.19" width="122" height="24"/><rect class="cls-4" x="482.3" y="1349.19" width="122" height="24"/><rect class="cls-4" x="527.3" y="1313.19" width="122" height="24"/><rect class="cls-4" x="1268.3" y="1312.19" width="122" height="24"/><rect class="cls-4" x="630.3" y="1348.19" width="122" height="24"/><rect class="cls-4" x="760" y="886" width="122" height="24" transform="translate(1590.3 2401.19) rotate(180)"/><rect class="cls-4" x="802" y="849" width="122" height="24" transform="translate(1674.3 2327.19) rotate(180)"/><rect class="cls-4" x="847" y="812" width="122" height="24" transform="translate(1764.3 2253.19) rotate(180)"/><line class="cls-4" x1="967.3" y1="1381.19" x2="845.3" y2="1381.19"/><rect class="cls-4" x="847" y="740" width="122" height="24" transform="translate(1764.3 2109.19) rotate(180)"/><rect class="cls-4" x="802" y="704" width="122" height="24" transform="translate(1674.3 2037.19) rotate(180)"/><rect class="cls-7" x="76.3" y="306.19" width="166" height="13"/><rect class="cls-7" x="231.3" y="267.19" width="166" height="13"/><rect class="cls-7" x="387.3" y="227.19" width="166" height="13"/><rect class="cls-7" x="262.57" y="-316.34" width="52.75" height="8.24" transform="translate(628.83 459.22) rotate(-109.78)"/><rect class="cls-7" x="419.57" y="-354.34" width="52.75" height="8.24" transform="translate(874.73 556.09) rotate(-109.78)"/></svg>