<svg xmlns="http://www.w3.org/2000/svg" viewBox="0 0 733.87 274.31"><defs><style>.cls-1{fill:#fff;}</style></defs><title>AttaxlogoWH</title><g id="Calque_2" data-name="Calque 2"><g id="Calque_1-2" data-name="Calque 1"><path class="cls-1" d="M134.82,198.88H53.93l-10.11-27h.11Q24.65,120.12,5.36,68.32h0L0,53.94H80.89Q86,67.43,91,80.91H46.46l33.72,91h44.53Z"/><path class="cls-1" d="M161.79,53.94H80.89L70.78,27h80.9Z"/><path class="cls-1" d="M266.32,118.09l-.21-.1h.17Z"/><path class="cls-1" d="M205.61,171.92h-80.9L114.6,145h80.9Z"/><path class="cls-1" d="M266.48,118.17l-.16-.08-.21-.1,0,0h.25Z"/><path class="cls-1" d="M266.32,118.09l-.21-.1h.17Z"/><path class="cls-1" d="M266.48,118.17l-.16-.08-.21-.1,0,0h.25Z"/><path class="cls-1" d="M276.33,144.94H195.44l-10.11-27h46.85v0L211.31,91.28l-.16-.08L194.07,69.31q5.4-21.18,10.79-42.34H151.64q-5.05-13.45-10.12-27h98L232.7,27l-9.17,36.21,0,.08v0l.05-.09L266.27,118H266l0,0,.21.1.16.08-.16-.2h.1l5.16,6.59c.62.78,1.23,1.57,1.85,2.36l13.86,17.75a.21.21,0,0,0,.07.13.22.22,0,0,0,0,.14Z"/><path class="cls-1" d="M81.83,274.31l-24.25-65,28.88,14.89,18,48.88Z"/><path class="cls-1" d="M223.6,63.21a.22.22,0,0,1,0,.08v0l0-.08h0A0,0,0,0,1,223.6,63.21Z"/><path class="cls-1" d="M266.48,118.17l-.16-.08-.21-.1,0,0h.25Z"/><path class="cls-1" d="M407.58,161.33h-45.5L344.7,192.77H321.1l70-123h25l17,123H411.42ZM371,143.94H406l-6.39-51.46h-.42Z"/><path class="cls-1" d="M446,174.53a48.36,48.36,0,0,1,.85-8.6l10-46.1H443.32l3.49-16.61h13.46l4.6-22.16h20.88l-4.69,22.16h18.83l-3.49,16.61H477.65l-9,42.09a27.48,27.48,0,0,0-.85,6.48c0,6.13,4.09,8.6,11.33,8.6a37.47,37.47,0,0,0,6.14-.42l-3.5,16.1a53.62,53.62,0,0,1-10.48,1C456.18,193.7,446,187.31,446,174.53Z"/><path class="cls-1" d="M502.82,174.53a48.36,48.36,0,0,1,.85-8.6l10-46.1H500.18l3.49-16.61h13.46l4.6-22.16h20.88l-4.69,22.16h18.83l-3.49,16.61H534.51l-9,42.09a28,28,0,0,0-.85,6.48c0,6.13,4.09,8.6,11.33,8.6a37.47,37.47,0,0,0,6.14-.42l-3.5,16.1a53.62,53.62,0,0,1-10.48,1C513,193.7,502.82,187.31,502.82,174.53Z"/><path class="cls-1" d="M550.65,169.34c0-18.15,14.4-28.8,38.34-29.83l24.62-1L614.8,133a14.59,14.59,0,0,0,.35-3.75c0-7.33-5.71-11.93-15.68-11.93-10.23,0-16.53,4.69-18.24,11.93H561c3-17.21,18.4-28.89,40.13-28.89,20.79,0,34.68,10.83,34.68,26.5a38.49,38.49,0,0,1-.69,7.5l-12.35,58.37H602.62l2.3-10.91h-.34c-5.62,7.5-15.08,12.36-26.24,12.36C562.92,194.22,550.65,183.82,550.65,169.34Zm58.11-8.18,2-8.61-21.14,1c-11.5.43-18.4,5.29-18.4,13,0,7,6.05,11.51,14.83,11.51C597,178,606.54,171,608.76,161.16Z"/><path class="cls-1" d="M679.25,161.5l-24.71,31.27h-23.6l38.77-46.1-19.6-44.39h22.15l12.79,31.18h.42l24.71-31.18h23.69l-38.77,46.1,19.51,44.39H692.54L679.76,161.5Z"/></g></g></svg>